<?xml version="1.0" encoding="UTF-8"?>
<svg id="Layer_2" data-name="Layer 2" xmlns="http://www.w3.org/2000/svg" viewBox="0 0 116.59 189.53">
  <defs>
    <style>
      .cls-1 {
        fill: #333;
      }
    </style>
  </defs>
  <path class="cls-1" d="m82.16,30.14c-3.72-8.65-6.01-8.1-8.29-7.55-2.29.55-2.31,5.59-1.51,11.35.93,6.71,1.49,13.37,1.77,20.03.62,15.1-.25,30.15-1.67,45.45-1.8,19.41-7.96,38.26-10.7,57.62-.79,5.56-2.66,15.8,2.98,19.69,6.12,4.21,20.52-.3,23-9.01,2.48-8.7,6.55-43.88,5.42-70.54-1.13-26.66-7.28-58.39-11-67.04Zm-4.62.2c1.4-.1,2.62.95,2.72,2.36.1,1.4-.95,2.62-2.36,2.72-1.4.1-2.62-.95-2.72-2.36-.1-1.4.95-2.62,2.36-2.72Zm3.7,137.56c-1.99,2.17-4.26,3.43-6.15,4.26-1.91.84-3.51,1.21-4.6,1.42-.54.12-.97.16-1.25.2-.28.04-.43.06-.43.06,0,0,.15-.03.43-.07.28-.05.7-.11,1.24-.25,1.08-.24,2.65-.69,4.51-1.57,1.84-.88,4.04-2.2,5.9-4.35.03-.03.06-.06.08-.1.14.09.28.16.43.23-.06.06-.11.12-.17.18Zm8.51-60.81c0,1.19-.05,2.37-.09,3.55-.04,1.18-.08,2.37-.12,3.54-.12,2.36-.2,4.71-.36,7.03-.26,4.66-.64,9.23-1.03,13.66-.42,4.42-.9,8.69-1.45,12.72-.55,4.03-1.13,7.84-1.81,11.34-.19.87-.37,1.73-.54,2.56-.02.06-.03.13-.05.19-.19-.1-.4-.19-.62-.25,0-.03.01-.05.02-.08.16-.83.32-1.68.49-2.55.61-3.48,1.12-7.29,1.59-11.32.48-4.03.86-8.3,1.27-12.71.36-4.41.72-8.98.94-13.62.14-2.32.21-4.66.31-7.01.03-1.18.06-2.35.09-3.53.03-1.18.06-2.36.07-3.54.02-1.18.03-2.36.05-3.54,0-1.18,0-2.35,0-3.53.01-2.34-.09-4.7-.14-7.02-.19-4.63-.51-9.2-.9-13.61-.4-4.41-.87-8.67-1.35-12.7-.49-4.03-1.04-7.83-1.58-11.34-.57-3.5-1.08-6.71-1.6-9.54-.51-2.84-1.01-5.3-1.44-7.32-.14-.66-.28-1.27-.4-1.84.05-.06.1-.11.15-.17.16.6.33,1.25.49,1.96.49,2.01,1.06,4.46,1.66,7.29.61,2.82,1.23,6.02,1.84,9.52.6,3.5,1.22,7.3,1.79,11.33.56,4.03,1.12,8.29,1.53,12.72.42,4.43.77,9,.99,13.68.07,2.33.19,4.67.19,7.04,0,1.18.03,2.37.03,3.55-.01,1.18-.02,2.37-.03,3.55Z"/>
  <path class="cls-1" d="m77.81,34.21c.73-.05,1.29-.69,1.23-1.42-.05-.73-.69-1.29-1.42-1.23-.73.05-1.29.69-1.23,1.42s.69,1.29,1.42,1.23Z"/>
  <path class="cls-1" d="m48.33,71.39c-1.55.71-3.73,3.66-3.73,3.66l-29.14,44.81,18.53-25.68,19.69-20.57s-3.8-2.92-5.35-2.21Z"/>
  <path class="cls-1" d="m59.61,78.37l-.89-1.33c-.89-1.33-3.59-2.74-3.59-2.74l-14.92,14.64,15.85-12.91,3.56,2.34Z"/>
  <path class="cls-1" d="m54.16,92.14c-1.78,2.66-3.87,5.76-6.1,9.08-2.23,3.32-4.6,6.87-6.98,10.41-1.18,1.78-2.36,3.55-3.53,5.3-1.16,1.75-2.33,3.45-3.43,5.13-1.1,1.68-2.09,3.34-3.05,4.9-.96,1.56-1.9,3.01-2.8,4.32-.91,1.31-1.78,2.48-2.6,3.48-.4.5-.82.96-1.19,1.37-.37.41-.78.72-1.18.95-.8.46-1.55.53-2.04.51-.5-.03-.75-.13-.75-.13,0,0,.25.12.75.18.49.05,1.28.04,2.13-.42.42-.22.86-.53,1.26-.93.4-.41.82-.84,1.26-1.33.88-.97,1.81-2.11,2.75-3.41,1.9-2.59,3.9-5.76,6.08-9.1,1.1-1.66,2.29-3.36,3.47-5.09,1.18-1.74,2.38-3.5,3.58-5.27,2.36-3.56,4.7-7.13,6.89-10.48,2.19-3.35,4.17-6.52,5.88-9.22,1.72-2.7,3.1-4.99,4.08-6.57.97-1.6,1.53-2.51,1.53-2.51,0,0-.6.88-1.66,2.42-1.04,1.55-2.56,3.74-4.34,6.4Z"/>
  <path class="cls-1" d="m10.36,124.98c.42-1.25,2.01-2.83,2.76-4.02,2.08-3.29,4.17-6.58,6.27-9.87,5.23-8.22,10.48-16.43,15.82-24.57,3.09-4.71,6-9.86,9.7-14.13,1.93-2.23,4.6-4.3,7.67-2.69,2.35,1.23,4.36,3.21,5.97,5.28.87,1.13,3.67,5.08,2.44,6.65.93-1.18.88-2.89.28-4.26-1.1-2.49-3.4-4.88-4.97-7.12-1.79-2.55.19-4.84.19-4.84l14.54-17.93s.06-2.95-.11-5.35c-.17-2.4-1.09-7.7-1.09-7.7,0,0-6.53,6.1-12.15,13.74-5.62,7.64-16.84,26.94-22.65,35.67-4.79,7.19-9.46,14.45-14.16,21.69-2.53,3.9-5.05,7.79-7.58,11.69-1.02,1.57-3.65,4.59-4.74,7.04-.34.75-.53,1.45-.48,2.04.08,1,.76,1.84,1.41,2.61,2.89,3.42,6,6.1,9.96,8.26-.36-.22-1.84-1.19-5.05-4.4-1.82-1.82-5-4.83-4.02-7.76ZM60.72,49.7s-2.87,4.51-5.17,9.25c-2.3,4.74-1.53,7.74-1.53,7.74l-.89-.77c-.89-.77-2.97-.76-2.97-.76,3.93-7.22,10.55-15.47,10.55-15.47Z"/>
  <path class="cls-1" d="m94.35,7.67c-1.31-.97-2.39-1.07-2.88-.51-.49.57-1.12,1.68-.85,3.08.28,1.4-1.16,6.13-3.22,9.65-2.06,3.53-5.5,5.19-5.5,5.19,0,0,1.35,1.5,1.79,2.72s.72,2.62.72,2.62c0,0,7.02-8.68,9.01-13.27,1.98-4.59,2.58-6.23,2.58-6.23,0,0-.34-2.29-1.66-3.26Zm-.17,2.59c-.16-.17-.31-.35-.51-.47-.17-.11-.36-.18-.55-.25-.37-.14-1.19-.27-1.36-.65-.12-.27-.12-.6.06-.85.59-.82,1.53.29,1.93.73.31.33.54.73.72,1.14.15.35.18.87.38,1.19-.09-.15-.19-.29-.3-.42-.12-.15-.24-.29-.37-.42Z"/>
</svg>