<?xml version="1.0" encoding="UTF-8"?>
<svg id="Layer_2" data-name="Layer 2" xmlns="http://www.w3.org/2000/svg" viewBox="0 0 140.7 270.17">
  <defs>
    <style>
      .cls-1 {
        fill: #333;
      }
    </style>
  </defs>
  <path class="cls-1" d="m75.36,66.16c1.75,1.48,6.64,3.78,7.47,8.64.84,4.86,1.16,14.38-.11,18.77-1.28,4.39-6.57,14.48-8.6,18.6-2.03,4.12-4.76,13.41-7.03,16.59s-4.69,5.17-4.69,5.17c0,0,2.01,5.56,7.95,10.52,0,0,.9-11.36,3.63-20.65,2.74-9.33,6.12-18.46,15.56-22.68,5.28-2.37,11.07-3.42,16.38-5.74,11.17-4.88,15.31-16.37,14.86-27.9-.11-2.89-1.98-7.26-3.16-7.96-1.18-.7-12.27-2.36-16.11-1.17-3.85,1.2-13.38,2.37-16.18,2.23-2.8-.14-4.88-2.3-6.58-2.34-1.7-.03-5.38,1.51-5.59,3.71-.21,2.2.46,2.73,2.21,4.2Zm7.44,35.94c1.99-4.34,3.39-10.04,2.82-14.82.59,4.96,10.33,7.16,14.09,7-6.06,1.54-11.82,4.2-16.92,7.82Zm33.57-40.99c.81,1.63,1.44,3.34,1.9,5.09-.04-.22-.07-.45-.11-.67l.5,2.39c-.11-.58-.24-1.15-.39-1.72.47,2.56.86,5.14,1.14,7.72-.33-2.02-.7-4.05-1.39-5.98-.7-1.93-1.74-3.76-3.26-5.14.67-.42,1.23-1.01,1.61-1.7Zm-28.22,11.59c1.33-2.95,6.74-10.14,11.52-11.58s9.95-.74,13.46,2.22c9.76,8.22,2.85,25.6-9.11,27.25-8.09,1.11-13.55-1.96-15.2-4.54-1.65-2.58-2-10.4-.67-13.35Zm-10.17-9.88s2.44,1.15,4.54,2.47c2.09,1.31,7.09-.85,7.15-.88-2.29.99-3,5.05-3.47,7.15,0,0,0,.02,0,.03-.81,3.64-.92,7.39-1.03,11.1-.1-2.14-.2-4.29-.3-6.43-.12-2.56-.36-5.47-2.23-7.44-1.69-1.78-5.03-2.29-6.38-4.33-.74-1.12,1.73-1.66,1.73-1.66Z"/>
  <path class="cls-1" d="m40.17,51.27c-2.97,5.26-3.98,11.21-3.98,15.05,0,3.84-.27,5.39,5.32,8.2,2.29,1.15,4.34,2.58,6.64,3.59,1.37.96,5.77,4.39,6.44,9.02.79,5.49-.12,10.38-1.58,13.71s-3.36,8.68-2.52,11.73c.84,3.04,3.42,5.06,2.42,14.03-.99,8.98-3.6,20.95-3.6,29.45,0,8.5,1.3,17.2,1.3,17.2.09.58,11.47,1.02,12.46.8.67-.15,1.21-.43,1.66-.82,2.8-2.4,2.76-7.26,2.84-10.61.09-3.94,1.11-8.36-.08-12.18-1.54-4.94-7.09-9.38-8.89-13.59-1.8-4.21-3.94-15.94-4.24-21.26-.3-5.32,2.04-20.4,3.23-26.84,1.19-6.44,3.65-11.05,3.65-11.05,0,0-2.85,3.38-6.52,2.9-2.84-.37-5.45-1.81-6.49-2.44,3.31,1.43,7.16,1.97,13.01-.45,0,0,2.15-2.38,4.06-4.65-.7,1.11-1.47,2.43-2.18,3.98-.86,1.86-1.81,3.96-2.64,6.35-.85,2.39-1.6,5.03-2.26,7.83-.66,2.81-1.32,5.75-1.84,8.88-.5,3.12-.91,6.37-1.07,9.69-.16,3.32-.18,6.7.07,10.1.14,1.7.33,3.38.65,5.11.32,1.67.72,3.29,1.17,4.91.9,3.23,2.14,6.35,3.84,9.17.84,1.4,1.87,2.71,2.89,3.82,1.01,1.13,1.99,2.19,2.82,3.27.84,1.07,1.47,2.19,1.84,3.32.09.28.14.52.22.81l.06.49.03.24v.02s0,.05,0,.05v.12c.04.61.05,1.24.05,1.86-.03,2.47-.11,4.76-.19,6.78-.09,2.03-.16,3.79-.22,5.25-.12,2.91-.19,4.58-.19,4.58,0,0,.07-.41.2-1.18.13-.77.33-1.9.54-3.34.22-1.44.49-3.19.74-5.21.26-2.02.55-4.29.73-6.81.04-.63.08-1.28.09-1.96v-.13s0-.06,0-.06c0-.03,0,.03,0-.08v-.03s-.02-.24-.02-.24l-.03-.49c-.05-.36-.11-.78-.21-1.14-.37-1.46-1.1-2.82-1.95-4.04-.85-1.24-1.82-2.39-2.75-3.54-.94-1.16-1.8-2.29-2.52-3.59-1.47-2.57-2.5-5.55-3.34-8.62-.41-1.54-.79-3.13-1.08-4.72-.27-1.54-.44-3.17-.56-4.79-.26-3.24-.28-6.53-.16-9.75.15-3.22.39-6.4.8-9.45.43-3.04.93-6.02,1.44-8.81.53-2.79,1.08-5.41,1.74-7.78.66-2.37,1.41-4.52,2.09-6.42.7-1.89,1.42-3.48,2.09-4.76.62-1.2,1.17-2.13,1.58-2.78.06-.09.12-.17.16-.25.03-.05.06-.1.09-.15.31-.48.5-.73.5-.73,0,0-.08.09-.23.25,1.51-2.86,4.8-10.86,5.13-12.5.36-1.79.58-4.73-1.73-7.48-2.32-2.74-5.75-6.98-6.46-12.72-.71-5.74-.29-9.98-2.65-14.93-2.36-4.95-4.47-9.82-5.55-9.1-1.08.71-1.34,1.45.12,6.63s5.67,11.07,4.95,14.65c-.72,3.58-3.31,6.23-6.28,7.65s-12.69,4.82-15.65,10.08Zm20.13,107.85c2.83,1,4.3,4.11,3.3,6.93-1,2.83-4.11,4.3-6.93,3.3-2.83-1-4.3-4.11-3.3-6.93,1-2.83,4.11-4.3,6.93-3.3Zm-23.03-88.85c-.94-1.98.55-6.94.55-6.94,0,0-.28,1.55.74,4.1,1.01,2.55,4.22,5.89,4.22,5.89-.83.8-4.56-1.07-5.5-3.05Zm29.67-4.61c-3.36,6.96-10.81,11.48-18.83,6.54-12.49-7.7-5.73-22.59,6.15-25.8,12.26-3.32,17.19,9.94,12.68,19.27Z"/>
  <path class="cls-1" d="m65.89,174.27s-3.33,3.21-3.67,8.02c-.34,4.82.98,37.39-.23,49.31-1.22,11.92-3.31,27.08-3.31,27.08,0,0,4.27-13.57,5.51-22.46,1.24-8.89,1.64-20.82.63-28.04-1-7.22-4.1-20.12,1.07-33.92Z"/>
  <path class="cls-1" d="m60.65,203.69c-.37-5.9-.87-18.42.02-21.67.88-3.25,2.98-6.07,2.98-6.07,0,0-6.89.85-9.65.14l-2.77-.71s-2.66,31.43-.66,50.52c2,19.09,3.27,33.26,3.27,33.26,0,0,1.41,2.97,2.51,1.44,0,0,2.98-14.58,3.9-27.97.92-13.39.78-23.05.4-28.94Z"/>
  <path class="cls-1" d="m57.46,167.12c1.6.57,3.36-.27,3.92-1.87.57-1.6-.27-3.36-1.87-3.92-1.6-.57-3.36.27-3.92,1.87-.57,1.6.27,3.36,1.87,3.92Z"/>
</svg>