<?xml version="1.0" encoding="UTF-8"?>
<svg id="Layer_2" data-name="Layer 2" xmlns="http://www.w3.org/2000/svg" viewBox="0 0 180.66 241.54">
  <defs>
    <style>
      .cls-1 {
        fill: #333;
      }
    </style>
  </defs>
  <path class="cls-1" d="m98.28,145.45l.61,1.19c.23.42.54.99,1.11,1.55.33.33.73.6,1.19.8l.15.06c.14.06.14.06.33.11l.12.03c.33.08.56.09.78.1.04,0,.07,0,.11,0,.86,0,1.54-.26,2.12-.53.58-.29,1.01-.58,1.4-.87l1.08-.79c.71-.55,1.43-1.12,2.09-1.72,1.41-1.25,2.68-2.58,3.79-3.96,1.12-1.39,2.14-2.92,3.06-4.53,1.59-2.79,2.9-5.93,4.1-9.9.88-2.91,1.67-6.02,2.58-10.09.71-3.22,1.38-6.64,1.97-10.17.6-3.53,1.11-6.97,1.51-10.23.43-3.47.77-6.84,1.05-10.29.28-3.54.46-7.02.55-10.35.07-3.29.11-6.83-.14-10.44v-.18s-.05-.08-.05-.08l.15-.13-.47-.62-.07-.14s0-.1.08-.33c.14-.38.46-.86.91-1.35.68-.71,1.54-1.4,2.45-2.13.35-.28.7-.56,1.04-.84,2.45-1.99,5.04-4.14,7.39-6.59,1.97-2.06,4.42-4.89,5.82-8.58.04-.13.09-.25.13-.38.1-.27.2-.54.28-.83l.35-1.29.04-.19c.16-.76.32-1.54.42-2.33.23-1.73.32-3.45.26-5.1-.08-3.26-.69-6.62-1.83-9.98-1.19-3.37-2.84-6.36-4.9-8.88-2.13-2.66-4.76-4.98-7.62-6.7-2.83-1.71-5.98-2.96-9.38-3.71-3.19-.71-6.55-.96-9.98-.76-3.27.19-6.56.77-9.8,1.73-.75.23-1.5.46-2.26.69-2.28.7-4.63,1.43-6.99,1.98-2.8.68-5.87,1.21-9.4,1.6-2.93.34-6.06.61-9.59.83-3.22.2-6.44.38-9.66.54-5.8.3-11.94.59-19.34.91-1.25.05-2.45.72-3.12,1.72-.57.79-.69,1.67-.79,2.45-.03.21-.05.42-.1.66-.29,2.01-.53,3.83-.73,5.56-.25,2.13-.41,3.91-.52,5.6-.13,1.75-.16,3.6-.09,5.68.1,3.51.31,7.07.53,10.51l.33,4.93c.02.23.03.47.07.74.07.36.15.65.26.89.49,1.18,1.57,2.1,2.86,2.4.63.11,1.24.18,1.85.25.32.04.64.08.97.12l44.21,5.54c.74.16,1.53.36,2.37.61.81.24,1.6.51,2.36.81.78.31,1.52.65,2.2,1.02.72.39,1.33.82,1.79,1.26.28.28.47.5.6.71.13.21.22.45.26.64.06.4.12.8.14,1.18.03.37.04.76.03,1.17,0,.39-.03.77-.08,1.16-.04.39-.1.77-.18,1.16-.07.38-.17.76-.28,1.13-.11.38-.24.74-.36,1.04l-.38.88,1.71,2.17c-.35,3.13-.73,6.33-1.14,9.5-.36,2.77-.85,6.43-1.47,10.07-.27,1.52-.57,3.23-1.01,4.86-.39,1.47-.77,3.08-1.2,5.08-.69,3.24-1.32,6.56-1.94,10.15-.26,1.51-.55,3.3-.81,5.12l-.03.21c-.22,1.64-.45,3.34-.53,5.05-.17,3.51.17,7.12,1.01,10.75.8,3.42,2.03,6.81,3.65,10.08Zm-2.67-20.74c.07-1.63.3-3.28.51-4.88l.03-.2c.25-1.8.55-3.57.8-5.06.61-3.57,1.24-6.86,1.92-10.07.42-1.96.79-3.54,1.17-4.98.46-1.72.77-3.48,1.05-5.04.62-3.69,1.12-7.36,1.48-10.15.32-2.51.63-5.03.92-7.52l1.88,2.38-2.55-8.63c.07-.27.13-.54.18-.81.09-.44.16-.89.21-1.33.05-.49.08-.93.09-1.33.01-.39,0-.83-.03-1.34-.02-.43-.09-.89-.16-1.39-.08-.46-.26-.92-.52-1.35-.22-.35-.5-.7-.91-1.11-.61-.58-1.36-1.11-2.23-1.58-.75-.41-1.57-.79-2.43-1.13-.81-.32-1.65-.61-2.52-.86-.9-.27-1.77-.49-2.57-.66l-.13.61.08-.62-44.27-5.54c-.33-.04-.67-.08-1-.12-.57-.07-1.15-.13-1.68-.23-.61-.14-1.17-.62-1.42-1.23-.05-.12-.1-.27-.13-.43-.03-.18-.04-.36-.06-.62l-.32-4.84c-.21-3.42-.43-6.96-.52-10.44-.06-2.01-.03-3.8.09-5.48.11-1.66.27-3.41.52-5.5.2-1.71.43-3.51.72-5.47.04-.24.08-.48.11-.73.08-.62.15-1.16.44-1.57.34-.51.94-.84,1.57-.86h0c7.4-.32,13.55-.61,19.35-.91,3.23-.17,6.45-.34,9.68-.54,3.56-.22,6.74-.49,9.7-.83,3.62-.41,6.77-.95,9.64-1.65,2.41-.57,4.8-1.3,7.11-2.02.75-.23,1.49-.46,2.24-.69,3.08-.92,6.23-1.47,9.34-1.65.25-.01.49,0,.74-.02.57,1.55,1.91,5.9,1.76,11.98-.09,3.75-.13,5.92-.16,7.17-1.42.68-2.4,2.12-2.4,3.79,0,2.32,1.88,4.2,4.2,4.2s4.2-1.88,4.2-4.2c0-1.84-1.18-3.39-2.82-3.97.11-2.41.22-6.83-.29-10.47-.56-4.03-1.43-7.21-1.81-8.51,2.05.07,4.07.31,6.01.74,3.18.7,6.13,1.87,8.77,3.47,2.66,1.6,5.11,3.76,7.1,6.25,1.92,2.34,3.45,5.13,4.56,8.27,1.07,3.16,1.65,6.31,1.72,9.39.06,1.55-.02,3.15-.24,4.78-.08.71-.23,1.42-.39,2.17l-.37,1.37c-.06.24-.14.45-.22.66-.05.14-.11.29-.14.4-1.26,3.32-3.54,5.95-5.38,7.87-2.27,2.37-4.8,4.47-7.22,6.43-.33.28-.68.55-1.02.83-.92.74-1.87,1.5-2.66,2.33-.46.5-.82.99-1.07,1.47l-2.66-2.77,2.35,5.11s.02.07.04.1c.03.07.06.13.09.19l.2.42c.23,3.47.19,6.9.12,10.08-.08,3.29-.26,6.74-.54,10.24-.27,3.42-.61,6.76-1.04,10.2-.4,3.23-.91,6.65-1.5,10.15-.59,3.49-1.25,6.88-1.95,10.07-.9,4.02-1.68,7.08-2.54,9.94-1.17,3.81-2.41,6.83-3.93,9.49-.86,1.52-1.83,2.95-2.88,4.26-1.04,1.29-2.23,2.54-3.57,3.72-.61.56-1.31,1.1-1.98,1.62l-1.03.75c-.32.23-.67.47-1.1.68-.44.21-.84.34-1.28.33-.12,0-.22,0-.35-.04l-.34-.11c-.25-.11-.43-.27-.55-.38-.36-.35-.56-.72-.74-1.06l-.59-1.16c-1.55-3.12-2.72-6.37-3.49-9.64-.8-3.44-1.12-6.88-.96-10.2Zm22.71-97.68h.07s.01-.14.03-.38c.95.12,1.63.88,1.82,2.45.24,1.94-2.19,2.67-2.19,2.67,0,0,1.34-.85,1.34-2.67,0-1.07-.58-1.72-1.07-2.07Z"/>
  <path class="cls-1" d="m40.7,12.92l-18.71-7.74c-2.52-1.04-5.4-.37-7.22,1.66-3.59,4-8.83,12-10.08,25.44-.78,11.64,4.49,21.2,8.08,26.27,1.82,2.57,5.22,3.46,8.03,2.07.05-.02.1-.05.15-.07,3.1-1.55,19.75-6.58,19.75-6.58,0,0-2.32-12.78-2.32-19.36s2.32-21.68,2.32-21.68ZM12.13,45.69l-.15-.88c.88,2.56,1.94,5.05,3.19,7.45.49.94,1.02,1.92,1,2.98-1.89-2.92-3.27-6.17-4.04-9.56ZM20.18,10.99c-1.15,1.83-3,3.07-4.04,4.95-1.21,2.16-2.18,4.49-2.99,6.83-1.54,4.45-2.68,9.42-2.61,14.16,0,.05,0,.09,0,.14,0-.04,0-.09,0-.13,0,0,0,0,0-.01-.08-4.49-.01-9.01.79-13.43.58-3.21,1.55-6.37,3.07-9.26.8-1.53,2.83-5.76,4.94-5.82,1.66-.04,1.47,1.57.84,2.57Z"/>
  <path class="cls-1" d="m129.38,74.67c0,2.14-.39,3.11-.39,3.11h2.91s.58-3.88.58-6.02-.39-3.3-.39-3.3l-2.72.19v6.02Z"/>
  <path class="cls-1" d="m93.11,115.31s6.6-26.59,6.02-33.77c-1.26-.08-2.52-.45-2.86,1.07-.1.45.35,3.04.15,3.2-.67.5-1.67.98-2.09,1.76-.56,1.03.45,1.78,1.12,2.51,0,0-.97,11.65-1.55,16.3-.58,4.66-.78,8.93-.78,8.93Z"/>
  <path class="cls-1" d="m129.11,34.27c-.06,1.42-.13,2.83-.22,4.23-.09,1.4-.18,2.77-.26,4.1-.16,2.27-.31,4.4-.44,6.3.26-.17.53-.34.81-.51.23-1.74.45-3.67.66-5.7.12-1.33.26-2.71.36-4.11.1-1.4.19-2.83.26-4.25.06-1.42.1-2.87.1-4.27.02-1.41-.04-2.79-.08-4.13-.04-1.34-.14-2.63-.23-3.86-.09-1.22-.22-2.38-.34-3.44-.25-2.13-.57-3.89-.8-5.11-.24-1.23-.43-1.91-.43-1.91,0,0,.09.71.21,1.95.13,1.24.24,3.01.36,5.14.11,2.13.19,4.61.22,7.27.02,1.33,0,2.71-.02,4.1-.02,1.41-.07,2.81-.14,4.23Z"/>
  <path class="cls-1" d="m128.78,49.94c.02-.14.04-.28.06-.43-.25.13-.49.25-.72.37-.15,2.12-.27,3.89-.35,5.13-.08,1.24-.13,1.96-.13,1.96,0,0,.14-.7.35-1.93.2-1.23.5-2.99.79-5.11Z"/>
  <path class="cls-1" d="m133.85,41.31c.08-1.11.18-2.27.24-3.44.06-1.17.13-2.36.17-3.56.03-1.19.06-2.4.06-3.57,0-1.18-.04-2.33-.07-3.45-.08-2.24-.23-4.32-.43-6.11-.18-1.78-.42-3.26-.58-4.29-.17-1.03-.31-1.61-.31-1.61,0,0,.03.6.09,1.64.06,1.04.09,2.53.14,4.31.04,1.78.07,3.86.07,6.08,0,1.11-.02,2.26-.03,3.43-.01,1.18-.05,2.35-.1,3.54-.04,1.19-.09,2.37-.13,3.54-.05,1.17-.1,2.32-.14,3.43-.07,1.68-.14,3.27-.19,4.71.28-.19.56-.4.83-.6.13-1.27.26-2.62.38-4.05Z"/>
  <path class="cls-1" d="m133.24,47.39c.02-.17.04-.35.06-.52-.08.05-.16.11-.23.16-.16.11-.33.21-.49.31-.06,1.78-.1,3.27-.14,4.31-.03,1.04-.04,1.64-.04,1.64,0,0,.11-.59.26-1.62.14-1.03.37-2.51.58-4.28Z"/>
  <path class="cls-1" d="m137.32,45.07c.05-.42.09-.86.14-1.32-.06.05-.13.11-.19.17-.2.17-.4.33-.6.49,0,.21,0,.43,0,.63-.04,2.94.02,4.91.02,4.91,0,0,.34-1.94.65-4.87Z"/>
  <path class="cls-1" d="m137.77,40.06c.06-.92.13-1.87.17-2.83.04-.97.08-1.95.11-2.93.02-.98.03-1.97.03-2.93,0-.97-.04-1.92-.06-2.84-.07-1.84-.19-3.56-.33-5.03-.14-1.47-.31-2.69-.44-3.54-.14-.85-.24-1.33-.24-1.33,0,0,0,1.96.02,4.9,0,1.47-.02,3.18-.02,5.01-.02,1.83-.04,3.79-.1,5.73-.05,1.95-.1,3.91-.14,5.74-.03,1.02-.05,2-.06,2.93.31-.25.62-.51.92-.76.06-.68.12-1.39.17-2.12Z"/>
  <path class="cls-1" d="m141.57,38.28c.04-.62.1-1.27.12-1.92.03-.68.05-1.36.08-2.05,0-.69,0-1.38,0-2.06,0-.68-.04-1.35-.06-1.99-.06-1.29-.15-2.49-.27-3.52-.23-2.06-.55-3.41-.55-3.41,0,0-.06,1.38-.11,3.44-.05,2.05-.11,4.78-.17,7.52-.01.68-.03,1.37-.04,2.04-.02.67-.01,1.34-.03,1.98,0,.38,0,.75,0,1.12.35-.37.68-.73.98-1.07.02-.02.04-.04.05-.07Z"/>
  <path class="cls-1" d="m140.54,40.68c0,.39,0,.77.01,1.13.03,2.06.14,3.44.14,3.44,0,0,.28-1.36.53-3.41.09-.69.17-1.47.25-2.3-.22.3-.46.6-.72.9-.07.08-.14.16-.21.24Z"/>
  <path class="cls-1" d="m101.66,139.83c.93.95,1.87,1.45,2.8,1.62,5.03.91,9.89-7.98,11.3-11.76,2.63-7.03,4.3-14.26,5.56-21.59,1.55-9.02,3.59-18.19,3.22-27.33-.26-6.2-.51-12.4-.77-18.6.19,4.55-.58,9.55-5.63,11.49.38,10.61-1.95,20.79-3.85,31.19-.72,3.91-6.48,36.43-12.12,33.56-1.01-.51-1.67-1.51-2.23-2.49-1.06-1.85-1.93-3.81-2.59-5.84.44,1.32.89,2.64,1.33,3.96.7,2.07,1.44,4.22,2.97,5.78Z"/>
  <path class="cls-1" d="m100.78,50.39c-2.14-4.58-4.12-10.77-4.12-15.85,0-8.45,5.01-20.96,5.01-20.96,0,0-2.82,4.07-5.01,12.52-.84,3.23-1,8.94-3.18,11.52-2.77,3.27-8.93,1.39-12.74,1.18-4.76-.26-9.53-.53-14.29-.79-6.08-.34-16.09,1.65-19.53-4.4-2.42-4.24-3-11.58-2.5-16.27,0,0-.94,8.76-.94,15.33s.94,13.45.94,15.02.63,2.82,1.56,3.44c.94.63,44.12,4.38,47.56,5.32,4.94,1.35,9.78,1.94,11.15,7.59.53,2.18.48,4.45.34,6.69.5-1.92.99-3.85,1.02-5.83.08-5.33-3.11-9.85-5.27-14.49Z"/>
  <path class="cls-1" d="m175.63,113.89c-.32-.82-.93-1.77-1.93-2.59-.98-.82-2.36-1.55-4.03-1.71-1.68-.16-3.56.35-5.24,1.49-1.67,1.13-3.13,2.85-4.14,4.96-1,2.11-1.5,4.59-1.68,7.17-.18,2.59-.08,5.31-.03,8.12.13,5.64.4,11.74.59,18.19.18,6.45.3,13.24-.06,20.24-.18,3.5-.46,7.04-.94,10.6l-.08.67-.02.17-.02.15-.05.34-.21,1.35c-.14.9-.28,1.8-.46,2.68-.31,1.77-.73,3.54-1.14,5.32-.89,3.54-2,7.05-3.35,10.47-1.35,3.42-2.95,6.75-4.85,9.89-1.89,3.14-4.06,6.11-6.49,8.81l-1.87,1.97-1.98,1.84c-.67.61-1.39,1.14-2.07,1.72l-.52.42-.13.1s0,0-.03.02l-.07.05-.28.2-.57.4-.28.2-.27.16c-.36.21-.69.43-1.06.63l-1.13.59-1.17.51c-.39.17-.8.29-1.19.44-1.6.54-3.25.89-4.9,1.03-3.3.31-6.57-.34-9.36-1.76l-1.02-.57-.48-.32c-.17-.12-.39-.25-.5-.35-.27-.23-.53-.4-.81-.68l-.41-.38-.39-.41c-1.03-1.1-1.91-2.39-2.65-3.76-.75-1.38-1.39-2.83-1.96-4.32-.29-.74-.56-1.5-.83-2.25-.12-.36-.25-.72-.37-1.08-.12-.39-.24-.78-.36-1.16-.23-.77-.5-1.55-.68-2.29-.18-.73-.36-1.46-.53-2.18-.19-.71-.31-1.47-.46-2.2-.13-.74-.31-1.46-.4-2.19-.21-1.46-.46-2.89-.58-4.31-.08-.71-.15-1.41-.23-2.11-.05-.7-.1-1.39-.14-2.08-.37-5.49-.27-10.56,0-15.04.18-2.9.44-5.55.73-7.93.4-.81.69-1.66.91-2.55,2-.75,8.33-3.5,9.55-8.72.91-3.9-.6-7.88-3.65-10.12l4.73-11.27s-2.57,3.67-4.96,6.61c-2.39,2.94-6.43,4.96-8.82,3.31-2.39-1.65-6.06-13.41-6.06-13.41,0,0,1.1,9.92,1.29,15.8.18,5.88,1.84,5.7,1.84,5.69.53-.06-.72,10.17-.79,10.71-.64,5.05-.81,10.17-.5,15.25.06,1.02.16,2.07.4,3.06.04,2.84.17,5.84.46,8.98.07.72.14,1.44.2,2.18.1.73.19,1.47.29,2.22.17,1.49.47,3,.73,4.54.12.77.32,1.54.49,2.32.18.78.32,1.56.55,2.36.22.8.44,1.6.66,2.41.23.8.5,1.53.75,2.31.13.38.26.77.38,1.15.15.41.3.82.45,1.23.3.78.6,1.57.93,2.36.66,1.59,1.4,3.19,2.32,4.77.91,1.58,2,3.13,3.37,4.53l.52.52.55.49c.35.33.8.65,1.22.96.23.18.39.26.58.39l.63.39,1.3.68c3.53,1.7,7.58,2.37,11.49,1.9,1.96-.22,3.89-.68,5.74-1.36.46-.18.92-.35,1.38-.55l1.34-.63,1.3-.72c.43-.25.87-.55,1.3-.82,6.3-4.49,11.3-10.6,15.1-17.27,1.91-3.33,3.49-6.84,4.8-10.41,1.31-3.57,2.37-7.21,3.2-10.87,1.62-7.35,2.3-14.66,2.47-21.75.19-7.08-.09-13.91-.43-20.37-.35-6.45-.77-12.54-1.03-18.16-.12-2.82-.28-5.51-.16-8.05.12-2.54.54-4.92,1.46-6.99.92-2.05,2.29-3.74,3.87-4.87,1.57-1.13,3.4-1.67,5-1.56,1.62.11,2.98.79,3.96,1.57,1,.78,1.62,1.7,1.96,2.51.67,1.65.32,2.65.37,2.63,0,0,.02-.23.06-.69-.02-.45-.03-1.15-.37-1.97Zm-67.36,39.98c2.1,1.73,3.12,4.63,2.45,7.48-.77,3.29-4.48,5.46-6.77,6.51.28-1.91.46-3.86.92-5.69.6-2.4,2.29-6.04,3.4-8.29Zm-8.8,36.96c-.74-9.44.89-20.2.89-20.2-1.47,14.01.88,32.74.88,32.74,0,0-1.03-3.1-1.77-12.53Zm-.44-32.15s1.92.29,3.83-.29c1.92-.59,3.54-2.36,3.54-2.36,0,0-1.18,2.36-3.39,3.1s-3.98-.44-3.98-.44Zm30.35,72.56c-3.91,1.22-5.6,1.3-8.22.6-.76-.14-1.13-.32-1.13-.32.4.12.77.23,1.13.32,1.26.23,3.59.35,7.11-.69,5.64-1.67,9.35-5.55,9.35-5.55,0,0-3.79,4.26-8.24,5.64Z"/>
</svg>