<?xml version="1.0" encoding="UTF-8"?>
<svg id="Layer_2" data-name="Layer 2" xmlns="http://www.w3.org/2000/svg" viewBox="0 0 90.5 245.11">
  <defs>
    <style>
      .cls-1 {
        fill: #333;
      }
    </style>
  </defs>
  <path class="cls-1" d="m61.63,122.92l7.62-.74c.63-.06.57-.74-.07-.76l-24.59-.82c-.29-.53-.6-1.12-.93-1.78l17.65.59c.05,0,.11,0,.16,0l7.62-.74c.63-.06.57-.74-.07-.76l-26.2-.88c-.24-.55-.48-1.14-.72-1.77l19.04.64c.05,0,.11,0,.16,0l7.62-.74c.63-.06.57-.74-.07-.76l-27.38-.91c-.18-.56-.34-1.15-.5-1.76l20.01.67c.05,0,.11,0,.16,0l7.62-.74c.63-.06.57-.74-.07-.76l-28.14-.94c-.12-.57-.23-1.15-.33-1.76l20.59.69c.05,0,.11,0,.16,0l7.62-.74c.63-.06.57-.74-.07-.76l-28.56-.95c-.07-.57-.13-1.15-.18-1.75l20.86.7c.05,0,.11,0,.16,0l7.62-.74c.63-.06.57-.74-.07-.76l-28.68-.96c0-.09-.01-.17-.01-.25-.01-.42-.02-.92-.01-1.49l20.83.7c.05,0,.11,0,.16,0l7.62-.74c.63-.06.57-.74-.07-.76l-28.51-.95c.01-.54.03-1.12.06-1.75l20.58.69c.05,0,.11,0,.16,0l7.62-.74c.63-.06.57-.74-.07-.76l-28.23-.94c.03-.56.05-1.14.08-1.74l20.27.68c.05,0,.11,0,.16,0l7.62-.74c.63-.06.57-.74-.07-.76l-27.89-.93c.03-.57.06-1.15.1-1.74l19.92.67c.05,0,.11,0,.16,0l7.62-.74c.63-.06.57-.74-.07-.76l-27.53-.92c.03-.57.07-1.15.11-1.74l19.55.65c.05,0,.11,0,.16,0l7.62-.74c.63-.06.57-.74-.07-.76l-27.16-.91c.04-.57.08-1.15.11-1.74l19.17.64c.05,0,.11,0,.16,0l7.62-.74c.63-.06.57-.74-.07-.76l-26.77-.89c.04-.57.08-1.16.12-1.74l18.77.63c.05,0,.11,0,.16,0l7.62-.74c.63-.06.57-.74-.07-.76l-26.37-.88c.04-.58.08-1.16.12-1.74l18.37.61c.05,0,.11,0,.16,0l7.62-.74c.63-.06.57-.74-.07-.76l-25.96-.87c.04-.58.08-1.16.13-1.74l17.96.6c.05,0,.11,0,.16,0l7.62-.74c.63-.06.57-.74-.07-.76l-25.55-.85c.04-.58.09-1.16.13-1.74l17.54.59c.05,0,.11,0,.16,0l7.62-.74c.63-.06.57-.74-.07-.76l-25.13-.84c.04-.58.09-1.16.13-1.74l17.12.57c.05,0,.11,0,.16,0l7.62-.74c.63-.06.57-.74-.07-.76l-24.7-.83c.04-.58.09-1.16.14-1.74l16.69.56c.05,0,.11,0,.16,0l7.62-.74c.63-.06.57-.74-.07-.76l-24.27-.81c.05-.58.09-1.16.14-1.74l16.26.54c.05,0,.11,0,.16,0l7.62-.74c.63-.06.57-.74-.07-.76l-23.84-.8c.05-.58.09-1.16.14-1.74l15.82.53c.05,0,.11,0,.16,0l7.62-.74c.63-.06.57-.74-.07-.76l-23.4-.78c.05-.58.09-1.16.14-1.74l15.39.51c.05,0,.11,0,.16,0l7.62-.74c.63-.06.57-.74-.07-.76l-22.96-.77c.05-.58.09-1.16.14-1.74l14.94.5c.05,0,.11,0,.16,0l7.62-.74c.63-.06.57-.74-.07-.76l-22.52-.75c.05-.58.1-1.17.14-1.74l14.5.48c.05,0,.11,0,.16,0l7.62-.74c.63-.06.57-.74-.07-.76l-22.07-.74c.05-.59.1-1.17.14-1.74l14.05.47c.05,0,.11,0,.16,0l7.62-.74c.63-.06.57-.74-.07-.76l-21.63-.72c.05-.59.1-1.17.15-1.74l13.6.45c.05,0,.11,0,.16,0l7.62-.74c.63-.06.57-.74-.07-.76l-21.18-.71c.05-.59.1-1.17.15-1.74l13.15.44c.05,0,.11,0,.16,0l7.62-.74c.63-.06.57-.74-.07-.76l-20.72-.69c.05-.59.1-1.17.15-1.74l12.7.42c.05,0,.11,0,.16,0l7.62-.74c.63-.06.57-.74-.07-.76l-20.27-.68c.05-.6.1-1.18.15-1.74l12.24.41c.05,0,.11,0,.16,0l7.62-.74c.63-.06.57-.74-.07-.76l-19.81-.66c.05-.6.1-1.19.15-1.74l11.78.39c.05,0,.11,0,.16,0l7.62-.74c.63-.06.57-.74-.07-.76l-19.35-.65c.05-.62.1-1.2.15-1.74l11.32.38c.05,0,.11,0,.16,0l7.62-.74c.63-.06.57-.74-.07-.76l-18.89-.63c.06-.69.11-1.28.15-1.74l10.86.36c.05,0,.11,0,.16,0l7.62-.74c.63-.06.57-.74-.07-.76l-18.41-.62c.07-.4.24-1.04.64-1.73l9.89.33c.05,0,.11,0,.16,0l7.62-.74c.63-.06.57-.74-.07-.76l-16.09-.54c.47-.35,1.03-.66,1.72-.91,3.83-1.39,15.17-1.01,15.17-1.01-.13,0-1.4-1.12-1.62-1.24-2.52-1.41-6.2-1.31-8.96-1.32-2.81-.01-6.58-.3-10.22-.04-5.43.39-10.59,2.01-11.9,7.56-.88,3.75-5.6,54.29-6.3,75.45-.71,21.16-1.63,71.44-1.33,96.42.3,24.98,1.41,37.12,1.41,37.12,0,0,.54,6.45,4.23,9.22,3.69,2.77,22.69.38,27.24-.22,4.56-.6,11.45-3.02,11.45-3.02l-27.95-1.31s-.02-.73-.06-2.05l16.61.55c.05,0,.11,0,.16,0l7.62-.74c.63-.06.57-.74-.07-.76l-24.38-.81c-.02-.63-.04-1.34-.06-2.11l16.84.56c.05,0,.11,0,.16,0l7.62-.74c.63-.06.57-.74-.07-.76l-24.61-.82c-.02-.67-.04-1.37-.05-2.11l17.07.57c.05,0,.11,0,.16,0l7.62-.74c.63-.06.57-.74-.07-.76l-24.83-.83c-.02-.68-.03-1.38-.05-2.11l17.29.58c.05,0,.11,0,.16,0l7.62-.74c.63-.06.57-.74-.07-.76l-25.06-.84c-.02-.69-.03-1.39-.05-2.11l17.52.59c.05,0,.11,0,.16,0l7.62-.74c.63-.06.57-.74-.07-.76l-25.28-.84c-.02-.69-.03-1.39-.05-2.11l17.73.59c.05,0,.11,0,.16,0l7.62-.74c.63-.06.57-.74-.07-.76l-25.49-.85c-.02-.69-.03-1.4-.05-2.11l17.95.6c.05,0,.11,0,.16,0l7.62-.74c.63-.06.57-.74-.07-.76l-25.7-.86c-.01-.7-.03-1.4-.04-2.11l18.16.61c.05,0,.11,0,.16,0l7.62-.74c.63-.06.57-.74-.07-.76l-25.91-.87c-.01-.7-.03-1.4-.04-2.11l18.36.61c.05,0,.11,0,.16,0l7.62-.74c.63-.06.57-.74-.07-.76l-26.11-.87c-.01-.7-.03-1.4-.04-2.11l18.56.62c.05,0,.11,0,.16,0l7.62-.74c.63-.06.57-.74-.07-.76l-26.31-.88c-.01-.7-.02-1.4-.03-2.11l18.75.63c.05,0,.11,0,.16,0l7.62-.74c.63-.06.57-.74-.07-.76l-26.5-.89c-.01-.7-.02-1.41-.03-2.11l18.94.63c.05,0,.11,0,.16,0l7.62-.74c.63-.06.57-.74-.07-.76l-26.68-.89c0-.7-.02-1.41-.03-2.11l19.12.64c.05,0,.11,0,.16,0l7.62-.74c.63-.06.57-.74-.07-.76l-26.86-.9c0-.71-.01-1.41-.02-2.11l19.29.64c.05,0,.11,0,.16,0l7.62-.74c.63-.06.57-.74-.07-.76l-27.02-.9c0-.71-.01-1.41-.02-2.11l19.45.65c.05,0,.11,0,.16,0l7.62-.74c.63-.06.57-.74-.07-.76l-27.18-.91c0-.71,0-1.41,0-2.11l19.6.65c.05,0,.11,0,.16,0l7.62-.74c.63-.06.57-.74-.07-.76l-27.32-.91c0-.72,0-1.42,0-2.1l19.73.66c.05,0,.11,0,.16,0l7.62-.74c.63-.06.57-.74-.07-.76l-27.44-.92c0-.72,0-1.42.02-2.1l19.83.66c.05,0,.11,0,.16,0l7.62-.74c.63-.06.57-.74-.07-.76l-27.53-.92c.01-.73.02-1.44.04-2.1l19.9.67c.05,0,.11,0,.16,0l7.62-.74c.63-.06.57-.74-.07-.76l-27.57-.92c.02-.77.05-1.47.09-2.1l19.9.66c.05,0,.11,0,.16,0l7.62-.74c.63-.06.57-.74-.07-.76l-27.51-.92c.05-.72.1-1.41.16-2.1l19.75.66c.05,0,.11,0,.16,0l7.62-.74c.63-.06.57-.74-.07-.76l-27.31-.91c.07-.72.15-1.42.23-2.1l19.49.65c.05,0,.11,0,.16,0l7.62-.74c.63-.06.57-.74-.07-.76l-26.98-.9c.1-.72.2-1.42.31-2.09l19.08.64c.05,0,.11,0,.16,0l7.62-.74c.63-.06.57-.74-.07-.76l-26.51-.89c.13-.73.26-1.43.39-2.09l18.53.62c.05,0,.11,0,.16,0l7.62-.74c.63-.06.57-.74-.07-.76l-25.88-.86c.17-.75.33-1.45.49-2.09l17.8.59c.05,0,.11,0,.16,0l7.62-.74c.63-.06.57-.74-.07-.76l-25.06-.84c.24-.86.45-1.56.62-2.08l16.85.56c.05,0,.11,0,.16,0l7.62-.74c.63-.06.57-.74-.07-.76l-23.83-.8c.27-.48.64-1.23.91-2.07l15.33.51c.05,0,.11,0,.16,0l7.62-.74c.63-.06.57-.74-.07-.76l-22.7-.76c.03-.57-.03-1.13-.26-1.62-.07-.15-.16-.32-.25-.5l15.88.53c.05,0,.11,0,.16,0Zm-33,73.55c-.07-20.43-.02-55.99-.02-55.99,0,0,2.49,72.72,2.64,79.53.15,6.81-2.54-3.11-2.62-23.54Zm3.17,32.39c-.22,0-.41-.15-.56-.32-.48-.57-.76-1.91-.02-2.43.02-.02.04-.03.06-.04,1.37-.84,1.94,2.77.51,2.8Zm4.89-117.68c-1.12-2.32-2.26-4.7-2.47-7.27-.75-9.53.6-19.18,1.86-28.61,2.02-15.07,6.24-62.21,6.24-62.21,0,0-3.76,55.86-4.94,68.68-1.22,13.17-2.69,24.55,3,37.04-1.23-2.54-2.46-5.09-3.69-7.63Z"/>
</svg>